<?xml version="1.0" encoding="utf-8"?>

<!-- Uploaded to: SVG Repo, www.svgrepo.com, Generator: SVG Repo Mixer Tools -->
<svg fill="#000000" height="70px" width="70px" version="1.1" id="Icons" xmlns="http://www.w3.org/2000/svg" xmlns:xlink="http://www.w3.org/1999/xlink" 
	 viewBox="0 0 32 32" xml:space="preserve">
<g>
	<path d="M3,13v1c0,2.8,2.2,5,5,5c1.6,0,3.1-0.8,4-2c0.9,1.2,2.4,2,4,2s3.1-0.8,4-2c0.9,1.2,2.4,2,4,2c2.8,0,5-2.2,5-5v-1H3z"/>
	<path d="M25.9,4.6C25.8,4.2,25.4,4,25,4H7C6.6,4,6.2,4.2,6.1,4.6L3.3,11h25.3L25.9,4.6z"/>
	<path d="M4,19.7V28c0,0.6,0.4,1,1,1h7v-9.3C10.8,20.6,9.5,21,8,21C6.5,21,5.1,20.5,4,19.7z M9.3,22.3c0.1-0.1,0.2-0.2,0.3-0.2
		c0.4-0.2,0.8-0.1,1.1,0.2c0.1,0.1,0.2,0.2,0.2,0.3c0,0.1,0.1,0.3,0.1,0.4s0,0.3-0.1,0.4s-0.1,0.2-0.2,0.3c-0.1,0.1-0.2,0.2-0.3,0.2
		S10.1,24,10,24c-0.3,0-0.5-0.1-0.7-0.3c-0.1-0.1-0.2-0.2-0.2-0.3C9,23.3,9,23.1,9,23C9,22.7,9.1,22.5,9.3,22.3z"/>
	<path d="M20,19.7c-1.2,0.8-2.5,1.3-4,1.3c-0.7,0-1.4-0.1-2-0.3V29h13c0.6,0,1-0.4,1-1v-8.3c-1.1,0.8-2.5,1.3-4,1.3
		C22.5,21,21.2,20.6,20,19.7z"/>
</g>
</svg>